<?xml version="1.0" encoding="UTF-8"?>
<svg id="_图层_1" data-name="图层_1" xmlns="http://www.w3.org/2000/svg" version="1.1" viewBox="0 0 300 300">
  <!-- Generator: Adobe Illustrator 29.0.0, SVG Export Plug-In . SVG Version: 2.1.0 Build 186)  -->
  <path d="M27.1,14.6c-1.2,1.5-2.1,3.4-2.1,4.3s11.3,19,25.1,40.2c46.6,71.4,57.4,87.9,58.4,89.4.7,1,.7,2,0,3-1,1.5-11.8,18-58.4,89.4-13.8,21.2-25.1,39.2-25.1,40.2s.9,2.8,2.1,4.3l2,2.6h27.8c20.7,0,28.1-.3,29.3-1.3,3-2.4,96.8-134.9,96.8-136.7S89.2,15.7,86.2,13.2c-1.2-.9-8.6-1.2-29.3-1.2h-27.8l-2,2.6ZM85.2,18.7c5.8,6.2,92.8,129.3,92.8,131.3s-87.1,125.2-92.8,131.3l-2.6,2.7-26.1-.2q-26-.3-26.3-2.5c-.2-1.5,11.9-21,39.6-63.5,22-33.7,40.7-62.8,41.6-64.5,1.6-3.1,1.5-3.5-.4-7.3s-7.6-12.4-14.4-22.8C56.8,62.6,30,20.7,30,19.2s.3-2.2.7-2.5c.3-.4,12.2-.7,26.3-.7h25.6l2.6,2.7Z"/>
  <path d="M133.3,14.6c-1.2,1.5-2.1,3.4-2.1,4.2,0,1.7-.2,1.4,48.9,76.5,19.3,29.6,35.1,54.2,35.1,54.7s-15.8,25.1-35.1,54.7c-49.1,75.1-48.9,74.8-48.9,76.5s.9,2.7,2.1,4.2l2,2.6h27.8c20.7,0,28.1-.3,29.3-1.3,1.9-1.5,93.8-130,95.7-133.9,1.3-2.4,1.3-3.2,0-5.6-1.9-3.9-93.8-132.4-95.7-134-1.2-.9-8.6-1.2-29.3-1.2h-27.8l-2,2.6ZM190.2,17.3c3.2,2.5,93.9,130.6,93.9,132.7s-90.5,130.1-93.8,132.8c-1.2.9-7.8,1.2-27.7,1-25.8-.3-26-.3-26.3-2.5-.2-1.4,12.7-22,40.1-64,22.2-34.1,41-62.9,41.6-64.2,2.2-4,5.7,1.9-56.2-92.9-14.1-21.6-25.7-40-25.7-41s.3-2.2.7-2.5c1.2-1.3,51.7-.7,53.4.6Z"/>
</svg>