<?xml version="1.0" standalone="no"?>
<!DOCTYPE svg PUBLIC "-//W3C//DTD SVG 20010904//EN"
 "http://www.w3.org/TR/2001/REC-SVG-20010904/DTD/svg10.dtd">
<svg version="1.0" xmlns="http://www.w3.org/2000/svg"
 width="300.000000pt" height="300.000000pt" viewBox="0 0 300.000000 300.000000"
 preserveAspectRatio="xMidYMid meet">
<metadata>
Created by potrace 1.10, written by Peter Selinger 2001-2011
</metadata>
<g transform="translate(0.000000,300.000000) scale(0.100000,-0.100000)"
fill="#000000" stroke="none">
<path d="M271 2854 c-12 -15 -21 -34 -21 -43 0 -10 113 -190 251 -402 466
-714 574 -879 584 -894 7 -10 7 -20 0 -30 -10 -15 -118 -180 -584 -894 -138
-212 -251 -392 -251 -402 0 -9 9 -28 21 -43 l20 -26 278 0 c207 0 281 3 293
13 30 24 968 1349 968 1367 0 18 -938 1343 -968 1368 -12 9 -86 12 -293 12
l-278 0 -20 -26z m581 -41 c58 -62 928 -1293 928 -1313 0 -20 -871 -1252 -928
-1313 l-26 -27 -261 2 c-260 3 -260 3 -263 25 -2 15 119 210 396 635 220 337
407 628 416 645 16 31 15 35 -4 73 -11 22 -76 124 -144 228 -398 606 -666
1025 -666 1040 0 10 3 22 7 25 3 4 122 7 263 7 l256 0 26 -27z"/>
<path d="M445 2760 c-10 -12 -16 -29 -13 -44 3 -13 177 -287 386 -609 210
-322 382 -595 382 -607 0 -12 -171 -283 -379 -603 -209 -320 -384 -594 -390
-608 -8 -22 -6 -30 13 -48 21 -20 33 -21 184 -21 153 0 162 1 186 22 13 13
218 295 455 627 313 438 431 611 431 631 0 20 -115 188 -420 616 -232 324
-436 606 -454 627 l-33 37 -165 0 c-151 0 -166 -2 -183 -20z m784 -640 l442
-620 -442 -620 -442 -619 -168 -3 c-93 -2 -169 -2 -169 -2 0 1 23 37 52 80
324 491 748 1151 748 1164 0 13 -424 673 -748 1164 -29 43 -52 79 -52 80 0 0
76 0 169 -2 l168 -3 442 -619z"/>
<path d="M1191 2854 c-12 -15 -21 -34 -21 -42 0 -17 -2 -14 489 -765 193 -296
351 -542 351 -547 0 -5 -158 -251 -351 -547 -491 -751 -489 -748 -489 -765 0
-8 9 -27 21 -42 l20 -26 278 0 c207 0 281 3 293 13 19 15 938 1300 957 1339
13 24 13 32 0 56 -19 39 -938 1324 -957 1340 -12 9 -86 12 -293 12 l-278 0
-20 -26z m570 -27 c32 -25 939 -1306 939 -1327 0 -20 -905 -1301 -938 -1328
-12 -9 -78 -12 -277 -10 -258 3 -260 3 -263 25 -2 14 127 220 401 640 222 341
410 629 416 642 22 40 57 -19 -562 929 -141 216 -257 400 -257 410 0 10 3 22
7 25 12 13 517 7 534 -6z"/>
</g>
</svg>
