<?xml version="1.0" encoding="UTF-8"?>
<svg id="_图层_1" data-name="图层_1" xmlns="http://www.w3.org/2000/svg" version="1.1" viewBox="0 0 300 300">
  <!-- Generator: Adobe Illustrator 29.0.0, SVG Export Plug-In . SVG Version: 2.1.0 Build 186)  -->
  <defs>
    <style>
      .st0 {
        fill: #d5defa;
        stroke: #091748;
        stroke-miterlimit: 10;
        stroke-width: 6.2px;
      }
    </style>
  </defs>
  <path class="st0" d="M190.3,44.5c6.6,5,105,103.8,105.1,105.5s0,0,0,0c-1.6,2.9-100.3,103-108.1,107.7-9.8-.6-64.3,1.1-59.4-2.2-.2-1.2,13.5-16.9,44.9-51,24.9-27.1,46.1-50.5,47.1-51.8,5-3.9-9-14.5-16.8-24.2-45.4-50.7-77.7-81.2-74.7-85.6s0,0,0,0c3-.7,47.9-.6,58.8-.6s0,0,0,0l2.9,2.2ZM76.7,44.5c6.6,5,105,103.8,105.1,105.5s0,0,0,0c-1.6,2.9-100.3,103-108.1,107.7-9.8-.6-64.3,1.1-59.4-2.2-.2-1.2,13.5-16.9,44.9-51,24.9-27.1,46.1-50.5,47.1-51.8,5-3.9-9-14.5-16.8-24.2C44.2,77.8,11.9,47.3,15,42.9s0,0,0,0c3-.7,47.9-.6,58.8-.6,0,0,2.9,2.2,2.9,2.2Z"/>
</svg>